# xmcd
#
# Track frame offsets: 
#        150
#        16370
#        49349
#        69778
#
# Disc length: 1284 seconds
#
# Revision: 0
# Processed by: cddbd v1.5.2PL0 Copyright (c) Steve Scherf et al.
# Submitted via: ExactAudioCopy v1.0b3
#
DISCID=2b050204
DTITLE=Dual Head - Black White
DYEAR=1900
DGENRE=
TTITLE0=Black White (Radio Edit)
TTITLE1=Black White (Extended Mix)
TTITLE2=Black White (FM Edit)
TTITLE3=Black White (Tribal Version)
EXTD=
EXTT0=
EXTT1=
EXTT2=
EXTT3=
PLAYORDER=
